<mxfile host="65bd71144e" modified="2021-01-24T19:08:08.670Z" agent="5.0 (Windows NT 10.0; Win64; x64) AppleWebKit/537.36 (KHTML, like Gecko) Code/1.52.1 Chrome/83.0.4103.122 Electron/9.3.5 Safari/537.36" etag="DeRYI8WUMXGuSawWL27b" version="13.10.0" type="embed" pages="3">
    <diagram id="r-OkaBZuNatw8BGqiQOj" name="Page-1">
        <mxGraphModel dx="1880" dy="1136" grid="1" gridSize="10" guides="1" tooltips="1" connect="1" arrows="1" fold="1" page="1" pageScale="1" pageWidth="850" pageHeight="1100" math="0" shadow="0">
            <root>
                <mxCell id="0"/>
                <mxCell id="1" parent="0"/>
                <mxCell id="2" value="M0" style="rounded=0;fillColor=none;" parent="1" vertex="1">
                    <mxGeometry width="40" height="40" as="geometry"/>
                </mxCell>
                <mxCell id="3" value="M1" style="rounded=0;fillColor=none;" parent="1" vertex="1">
                    <mxGeometry x="40" width="40" height="40" as="geometry"/>
                </mxCell>
                <mxCell id="4" value="M2" style="rounded=0;fillColor=none;" parent="1" vertex="1">
                    <mxGeometry x="80" width="40" height="40" as="geometry"/>
                </mxCell>
                <mxCell id="5" value="M3" style="rounded=0;fillColor=none;" parent="1" vertex="1">
                    <mxGeometry x="120" width="40" height="40" as="geometry"/>
                </mxCell>
                <mxCell id="7" value="M4" style="rounded=0;fillColor=none;" parent="1" vertex="1">
                    <mxGeometry x="160" width="40" height="40" as="geometry"/>
                </mxCell>
                <mxCell id="8" value="M5" style="rounded=0;fillColor=none;" parent="1" vertex="1">
                    <mxGeometry x="200" width="40" height="40" as="geometry"/>
                </mxCell>
                <mxCell id="9" value="M6" style="rounded=0;fillColor=none;" parent="1" vertex="1">
                    <mxGeometry x="240" width="40" height="40" as="geometry"/>
                </mxCell>
                <mxCell id="10" value="..." style="rounded=0;fillColor=none;" parent="1" vertex="1">
                    <mxGeometry x="280" width="40" height="40" as="geometry"/>
                </mxCell>
                <mxCell id="11" value="MN" style="rounded=0;fillColor=none;" parent="1" vertex="1">
                    <mxGeometry x="320" width="40" height="40" as="geometry"/>
                </mxCell>
            </root>
        </mxGraphModel>
    </diagram>
    <diagram id="XPIt5ebhcRbmZPLK7KPX" name="Page-2">
        <mxGraphModel dx="2730" dy="1136" grid="1" gridSize="10" guides="1" tooltips="1" connect="1" arrows="1" fold="1" page="1" pageScale="1" pageWidth="850" pageHeight="1100" math="0" shadow="0">
            <root>
                <mxCell id="iCyBXxCva0UtTDX6Zf6W-0"/>
                <mxCell id="iCyBXxCva0UtTDX6Zf6W-1" parent="iCyBXxCva0UtTDX6Zf6W-0"/>
                <mxCell id="iCyBXxCva0UtTDX6Zf6W-9" value="(0,2)" style="rounded=0;fillColor=#7FB285;strokeColor=#080808;" parent="iCyBXxCva0UtTDX6Zf6W-1" vertex="1">
                    <mxGeometry width="40" height="40" as="geometry"/>
                </mxCell>
                <mxCell id="iCyBXxCva0UtTDX6Zf6W-10" value="(4,6)" style="rounded=0;fillColor=#F2A541;strokeColor=#080808;" parent="iCyBXxCva0UtTDX6Zf6W-1" vertex="1">
                    <mxGeometry x="40" width="40" height="40" as="geometry"/>
                </mxCell>
                <mxCell id="iCyBXxCva0UtTDX6Zf6W-11" value="" style="endArrow=classic;exitX=0;exitY=1;exitDx=0;exitDy=0;entryX=0;entryY=0;entryDx=0;entryDy=0;fillColor=#d5e8d4;strokeColor=#7FB285;" parent="iCyBXxCva0UtTDX6Zf6W-1" source="iCyBXxCva0UtTDX6Zf6W-9" edge="1">
                    <mxGeometry width="50" height="50" relative="1" as="geometry">
                        <mxPoint x="310" y="20" as="sourcePoint"/>
                        <mxPoint y="80" as="targetPoint"/>
                    </mxGeometry>
                </mxCell>
                <mxCell id="iCyBXxCva0UtTDX6Zf6W-12" value="" style="endArrow=classic;exitX=1;exitY=1;exitDx=0;exitDy=0;entryX=1;entryY=0;entryDx=0;entryDy=0;fillColor=#d5e8d4;strokeColor=#7FB285;" parent="iCyBXxCva0UtTDX6Zf6W-1" source="iCyBXxCva0UtTDX6Zf6W-9" edge="1">
                    <mxGeometry width="50" height="50" relative="1" as="geometry">
                        <mxPoint x="320" y="20" as="sourcePoint"/>
                        <mxPoint x="120" y="80" as="targetPoint"/>
                    </mxGeometry>
                </mxCell>
                <mxCell id="iCyBXxCva0UtTDX6Zf6W-13" value=".." style="rounded=0;fillColor=none;" parent="iCyBXxCva0UtTDX6Zf6W-1" vertex="1">
                    <mxGeometry x="80" width="40" height="40" as="geometry"/>
                </mxCell>
                <mxCell id="iCyBXxCva0UtTDX6Zf6W-14" value="" style="endArrow=classic;exitX=1;exitY=1;exitDx=0;exitDy=0;entryX=0;entryY=0;entryDx=0;entryDy=0;fillColor=#dae8fc;strokeColor=#F2A541;" parent="iCyBXxCva0UtTDX6Zf6W-1" source="iCyBXxCva0UtTDX6Zf6W-10" edge="1">
                    <mxGeometry width="50" height="50" relative="1" as="geometry">
                        <mxPoint x="320" y="20" as="sourcePoint"/>
                        <mxPoint x="280" y="80" as="targetPoint"/>
                    </mxGeometry>
                </mxCell>
                <mxCell id="iCyBXxCva0UtTDX6Zf6W-15" value="" style="endArrow=classic;exitX=0;exitY=1;exitDx=0;exitDy=0;entryX=0;entryY=0;entryDx=0;entryDy=0;fillColor=#dae8fc;strokeColor=#F2A541;" parent="iCyBXxCva0UtTDX6Zf6W-1" source="iCyBXxCva0UtTDX6Zf6W-10" edge="1">
                    <mxGeometry width="50" height="50" relative="1" as="geometry">
                        <mxPoint x="320" y="-40" as="sourcePoint"/>
                        <mxPoint x="160" y="80" as="targetPoint"/>
                    </mxGeometry>
                </mxCell>
                <mxCell id="ju1ZRD0kFvSWGYZCty1K-0" value="M0" style="rounded=0;fillColor=none;strokeColor=#7FB285;" parent="iCyBXxCva0UtTDX6Zf6W-1" vertex="1">
                    <mxGeometry y="80" width="40" height="40" as="geometry"/>
                </mxCell>
                <mxCell id="ju1ZRD0kFvSWGYZCty1K-1" value="M1" style="rounded=0;fillColor=none;strokeColor=#7FB285;" parent="iCyBXxCva0UtTDX6Zf6W-1" vertex="1">
                    <mxGeometry x="40" y="80" width="40" height="40" as="geometry"/>
                </mxCell>
                <mxCell id="ju1ZRD0kFvSWGYZCty1K-2" value="M2" style="rounded=0;fillColor=none;strokeColor=#7FB285;" parent="iCyBXxCva0UtTDX6Zf6W-1" vertex="1">
                    <mxGeometry x="80" y="80" width="40" height="40" as="geometry"/>
                </mxCell>
                <mxCell id="ju1ZRD0kFvSWGYZCty1K-4" value="M4" style="rounded=0;fillColor=none;strokeColor=#F2A541;" parent="iCyBXxCva0UtTDX6Zf6W-1" vertex="1">
                    <mxGeometry x="160" y="80" width="40" height="40" as="geometry"/>
                </mxCell>
                <mxCell id="ju1ZRD0kFvSWGYZCty1K-5" value="M5" style="rounded=0;fillColor=none;strokeColor=#F2A541;" parent="iCyBXxCva0UtTDX6Zf6W-1" vertex="1">
                    <mxGeometry x="200" y="80" width="40" height="40" as="geometry"/>
                </mxCell>
                <mxCell id="ju1ZRD0kFvSWGYZCty1K-6" value="M6" style="rounded=0;fillColor=none;strokeColor=#F2A541;" parent="iCyBXxCva0UtTDX6Zf6W-1" vertex="1">
                    <mxGeometry x="240" y="80" width="40" height="40" as="geometry"/>
                </mxCell>
                <mxCell id="ju1ZRD0kFvSWGYZCty1K-7" value="..." style="rounded=0;fillColor=none;" parent="iCyBXxCva0UtTDX6Zf6W-1" vertex="1">
                    <mxGeometry x="280" y="80" width="40" height="40" as="geometry"/>
                </mxCell>
                <mxCell id="ju1ZRD0kFvSWGYZCty1K-8" value="MN" style="rounded=0;fillColor=none;" parent="iCyBXxCva0UtTDX6Zf6W-1" vertex="1">
                    <mxGeometry x="320" y="80" width="40" height="40" as="geometry"/>
                </mxCell>
                <mxCell id="ju1ZRD0kFvSWGYZCty1K-3" value="M3" style="rounded=0;fillColor=#B80300;strokeColor=#050000;fontColor=#FFFFFF;" parent="iCyBXxCva0UtTDX6Zf6W-1" vertex="1">
                    <mxGeometry x="120" y="80" width="40" height="40" as="geometry"/>
                </mxCell>
            </root>
        </mxGraphModel>
    </diagram>
    <diagram id="wPd80uZzwLBpFttXJMHS" name="Page-3">
        <mxGraphModel dx="2730" dy="1136" grid="1" gridSize="10" guides="1" tooltips="1" connect="1" arrows="1" fold="1" page="1" pageScale="1" pageWidth="850" pageHeight="1100" math="0" shadow="0">
            <root>
                <mxCell id="pbuuF_X-pkHFoYpIUGJG-0"/>
                <mxCell id="pbuuF_X-pkHFoYpIUGJG-1" parent="pbuuF_X-pkHFoYpIUGJG-0"/>
                <mxCell id="pbuuF_X-pkHFoYpIUGJG-10" value="(0,6)" style="rounded=0;strokeColor=#0D0D0D;fillColor=#7FB285;" parent="pbuuF_X-pkHFoYpIUGJG-1" vertex="1">
                    <mxGeometry width="40" height="40" as="geometry"/>
                </mxCell>
                <mxCell id="pbuuF_X-pkHFoYpIUGJG-11" value="" style="endArrow=classic;exitX=0;exitY=1;exitDx=0;exitDy=0;entryX=0;entryY=0;entryDx=0;entryDy=0;fillColor=#d5e8d4;strokeColor=#7FB285;" parent="pbuuF_X-pkHFoYpIUGJG-1" source="pbuuF_X-pkHFoYpIUGJG-10" edge="1">
                    <mxGeometry width="50" height="50" relative="1" as="geometry">
                        <mxPoint x="310" y="20" as="sourcePoint"/>
                        <mxPoint y="80" as="targetPoint"/>
                    </mxGeometry>
                </mxCell>
                <mxCell id="pbuuF_X-pkHFoYpIUGJG-12" value=".." style="rounded=0;fillColor=none;strokeColor=#0D0D0D;" parent="pbuuF_X-pkHFoYpIUGJG-1" vertex="1">
                    <mxGeometry x="40" width="40" height="40" as="geometry"/>
                </mxCell>
                <mxCell id="pbuuF_X-pkHFoYpIUGJG-13" value="" style="endArrow=classic;exitX=0;exitY=1;exitDx=0;exitDy=0;entryX=0;entryY=0;entryDx=0;entryDy=0;fillColor=#d5e8d4;strokeColor=#7FB285;" parent="pbuuF_X-pkHFoYpIUGJG-1" source="pbuuF_X-pkHFoYpIUGJG-12" edge="1">
                    <mxGeometry width="50" height="50" relative="1" as="geometry">
                        <mxPoint x="80" y="40" as="sourcePoint"/>
                        <mxPoint x="280" y="80" as="targetPoint"/>
                    </mxGeometry>
                </mxCell>
                <mxCell id="fdjVPsj0DeB6bkKalooq-0" value="M0" style="rounded=0;fillColor=none;strokeColor=#7FB285;" parent="pbuuF_X-pkHFoYpIUGJG-1" vertex="1">
                    <mxGeometry y="80" width="40" height="40" as="geometry"/>
                </mxCell>
                <mxCell id="fdjVPsj0DeB6bkKalooq-1" value="M1" style="rounded=0;fillColor=none;strokeColor=#7FB285;" parent="pbuuF_X-pkHFoYpIUGJG-1" vertex="1">
                    <mxGeometry x="40" y="80" width="40" height="40" as="geometry"/>
                </mxCell>
                <mxCell id="fdjVPsj0DeB6bkKalooq-2" value="M2" style="rounded=0;fillColor=none;strokeColor=#7FB285;" parent="pbuuF_X-pkHFoYpIUGJG-1" vertex="1">
                    <mxGeometry x="80" y="80" width="40" height="40" as="geometry"/>
                </mxCell>
                <mxCell id="fdjVPsj0DeB6bkKalooq-3" value="M4" style="rounded=0;fillColor=none;strokeColor=#7FB285;" parent="pbuuF_X-pkHFoYpIUGJG-1" vertex="1">
                    <mxGeometry x="160" y="80" width="40" height="40" as="geometry"/>
                </mxCell>
                <mxCell id="fdjVPsj0DeB6bkKalooq-4" value="M5" style="rounded=0;fillColor=none;strokeColor=#7FB285;" parent="pbuuF_X-pkHFoYpIUGJG-1" vertex="1">
                    <mxGeometry x="200" y="80" width="40" height="40" as="geometry"/>
                </mxCell>
                <mxCell id="fdjVPsj0DeB6bkKalooq-6" value="..." style="rounded=0;fillColor=none;strokeColor=#0D0D0D;" parent="pbuuF_X-pkHFoYpIUGJG-1" vertex="1">
                    <mxGeometry x="280" y="80" width="40" height="40" as="geometry"/>
                </mxCell>
                <mxCell id="fdjVPsj0DeB6bkKalooq-7" value="MN" style="rounded=0;fillColor=none;strokeColor=#0D0D0D;" parent="pbuuF_X-pkHFoYpIUGJG-1" vertex="1">
                    <mxGeometry x="320" y="80" width="40" height="40" as="geometry"/>
                </mxCell>
                <mxCell id="fdjVPsj0DeB6bkKalooq-8" value="M3" style="rounded=0;fillColor=none;strokeColor=#7FB285;" parent="pbuuF_X-pkHFoYpIUGJG-1" vertex="1">
                    <mxGeometry x="120" y="80" width="40" height="40" as="geometry"/>
                </mxCell>
                <mxCell id="fdjVPsj0DeB6bkKalooq-5" value="M6" style="rounded=0;fillColor=none;strokeColor=#7FB285;" parent="pbuuF_X-pkHFoYpIUGJG-1" vertex="1">
                    <mxGeometry x="240" y="80" width="40" height="40" as="geometry"/>
                </mxCell>
            </root>
        </mxGraphModel>
    </diagram>
</mxfile>